<?xml version="1.0" encoding="utf-8" ?>	<!-- Generator: Assembly 2.2 - http://assemblyapp.co -->	<svg version="1.1" xmlns="http://www.w3.org/2000/svg" xmlns:xlink="http://www.w3.org/1999/xlink" width="2048.00" height="2048.00" viewBox="0 0 2048.0 2048.0">		<g id="document" transform="matrix(1,0,0,1,1024.0,1024.0)">			<defs>				<filter id="YE8b65Ek" x="-1.73%" y="-1.23%" width="108.74%" height="108.24%" filterUnits="objectBoundingBox">					<feOffset dx="30.64" dy="39.39" in="SourceAlpha" result="shadowOffsetOuter1" />					<feGaussianBlur stdDeviation="30.31" in="shadowOffsetOuter1" result="shadowBlurOuter1" />					<feFlood flood-color="#000000" flood-opacity="0.31" />					<feComposite in2="shadowBlurOuter1" operator="in" />					<feMerge>						<feMergeNode />						<feMergeNode in="SourceGraphic" />					</feMerge>				</filter>			</defs>			<path d="M-9.86851e-06,812.392 C477.981,812.392 864.917,425.455 864.917,-52.5253 C864.917,-530.506 477.981,-917.443 -4.98243e-06,-917.443 C-477.981,-917.443 -864.917,-530.506 -864.917,-52.5253 C-864.917,425.455 -477.981,812.392 -9.86851e-06,812.392 Z " fill="#d3d3d3" fill-opacity="1.00" filter="url(#YE8b65Ek)" />			<defs>				<filter id="csOFdN7q" x="-0.97%" y="-1.64%" width="117.34%" height="110.03%" filterUnits="objectBoundingBox">					<feOffset dx="23.62" dy="16.36" in="SourceAlpha" result="shadowOffsetOuter1" />					<feGaussianBlur stdDeviation="13.41" in="shadowOffsetOuter1" result="shadowBlurOuter1" />					<feFlood flood-color="#000000" flood-opacity="0.68" />					<feComposite in2="shadowBlurOuter1" operator="in" />					<feMerge>						<feMergeNode />						<feMergeNode in="SourceGraphic" />					</feMerge>				</filter>			</defs>			<path d="M-125.23,172.424 L124.605,172.424 C124.605,172.424 125.829,67.6118 135.642,-36.0804 C145.455,-139.773 163.857,-242.344 163.857,-242.344 C163.857,-242.344 147.215,-304.478 124.605,-336.258 C101.995,-368.038 58.1337,-369.466 58.1337,-369.466 C58.1337,-369.466 49.9219,-445.608 46.4642,-456.708 C43.0065,-467.809 28.0121,-466.163 28.0121,-466.163 L-30.0774,-466.163 C-30.0774,-466.163 -42.181,-468.169 -45.5041,-456.708 C-48.8272,-445.248 -58.1163,-369.466 -58.1163,-369.466 C-58.1163,-369.466 -98.7949,-368.038 -125.23,-336.258 C-151.665,-304.478 -163.857,-242.344 -163.857,-242.344 C-163.857,-242.344 -142.826,-119.349 -135.092,-36.0804 C-127.358,47.1879 -125.23,172.424 -125.23,172.424 Z " fill="#3e3e3e" fill-opacity="1.00" filter="url(#csOFdN7q)" />			<defs>				<filter id="Wu7qXZrX" x="-0.83%" y="-11.15%" width="105.18%" height="155.45%" filterUnits="objectBoundingBox">					<feOffset dx="14.23" dy="11.39" in="SourceAlpha" result="shadowOffsetOuter1" />					<feGaussianBlur stdDeviation="11.47" in="shadowOffsetOuter1" result="shadowBlurOuter1" />					<feFlood flood-color="#000000" flood-opacity="0.68" />					<feComposite in2="shadowBlurOuter1" operator="in" />					<feMerge>						<feMergeNode />						<feMergeNode in="SourceGraphic" />					</feMerge>				</filter>			</defs>			<path d="M-523.838,332.396 L-523.838,302.036 L-500.151,302.036 C-494.368,302.036 -490.009,302.659 -487.073,303.904 C-481.868,306.129 -479.266,310.443 -479.266,316.849 C-479.266,323.21 -481.713,327.614 -486.606,330.061 C-489.72,331.618 -494.079,332.396 -499.684,332.396 L-523.838,332.396 Z M-523.838,377.636 L-523.838,343.139 L-497.482,343.139 C-491.922,343.139 -487.451,343.828 -484.07,345.207 C-477.709,347.787 -474.529,352.636 -474.529,359.753 C-474.529,363.979 -475.619,367.582 -477.798,370.563 C-481.268,375.278 -487.073,377.636 -495.213,377.636 L-523.838,377.636 Z M-536.85,388.979 L-495.414,388.979 C-482.513,388.979 -473.105,385.153 -467.189,377.502 C-463.23,372.387 -461.25,366.67 -461.25,360.354 C-461.25,352.836 -463.452,346.942 -467.856,342.672 C-470.347,340.27 -474.106,338.112 -479.133,336.199 C-475.708,334.464 -473.083,332.552 -471.259,330.461 C-467.745,326.502 -465.988,321.431 -465.988,315.248 C-465.988,309.954 -467.411,305.283 -470.258,301.235 C-475.107,294.385 -483.27,290.96 -494.746,290.96 L-536.85,290.96 L-536.85,388.979 Z M-425.753,348.81 L-409.939,305.506 L-395.059,348.81 L-425.753,348.81 Z M-453.777,388.979 L-440.165,388.979 L-429.556,359.62 L-390.789,359.62 L-380.847,388.979 L-366.301,388.979 L-401.865,290.96 L-416.878,290.96 L-453.777,388.979 Z M-339.344,335.866 L-339.344,302.37 L-306.915,302.37 C-302.378,302.37 -298.753,303.037 -296.039,304.371 C-290.968,306.907 -288.433,311.667 -288.433,318.651 C-288.433,325.145 -290.245,329.638 -293.871,332.129 C-297.496,334.62 -302.423,335.866 -308.65,335.866 L-339.344,335.866 Z M-352.622,388.979 L-339.344,388.979 L-339.344,346.942 L-309.117,346.942 C-303.69,346.942 -299.709,347.543 -297.174,348.744 C-292.725,350.923 -290.345,355.216 -290.034,361.622 L-289.233,377.969 C-289.055,381.795 -288.833,384.375 -288.566,385.709 C-288.299,387.044 -287.943,388.134 -287.498,388.979 L-271.218,388.979 L-271.218,386.777 C-273.264,385.887 -274.687,383.885 -275.488,380.772 C-275.977,378.948 -276.289,376.168 -276.422,372.431 L-276.889,359.286 C-277.112,353.592 -278.19,349.478 -280.125,346.942 C-282.06,344.406 -284.941,342.36 -288.766,340.803 C-284.407,338.535 -281.015,335.532 -278.591,331.795 C-276.166,328.059 -274.954,323.255 -274.954,317.383 C-274.954,306.129 -279.558,298.411 -288.766,294.229 C-293.615,292.05 -299.776,290.96 -307.249,290.96 L-352.622,290.96 L-352.622,388.979 Z M-255.537,388.979 L-242.592,388.979 L-242.592,354.816 L-226.912,339.802 L-192.615,388.979 L-175.334,388.979 L-217.237,330.461 L-176.468,290.96 L-194.817,290.96 L-242.592,338.735 L-242.592,290.96 L-255.537,290.96 L-255.537,388.979 Z M-163.123,388.979 L-90.6596,388.979 L-90.6596,377.302 L-150.178,377.302 L-150.178,344.073 L-96.0643,344.073 L-96.0643,332.73 L-150.178,332.73 L-150.178,302.97 L-91.6604,302.97 L-91.6604,290.96 L-163.123,290.96 L-163.123,388.979 Z M-71.9766,388.979 L0.48683,388.979 L0.48683,377.302 L-59.0319,377.302 L-59.0319,344.073 L-4.9179,344.073 L-4.9179,332.73 L-59.0319,332.73 L-59.0319,302.97 L-0.514045,302.97 L-0.514044,290.96 L-71.9766,290.96 L-71.9766,388.979 Z M19.1698,388.979 L32.4481,388.979 L32.4481,347.543 L63.2751,347.543 C73.1504,347.543 80.4679,344.707 85.2276,339.035 C89.9873,333.363 92.3672,326.702 92.3672,319.051 C92.3672,310.154 89.6982,303.248 84.3602,298.333 C79.0222,293.417 71.9938,290.96 63.2751,290.96 L19.1698,290.96 L19.1698,388.979 Z M78.9555,319.118 C78.9555,325.523 77.0983,329.994 73.3839,332.529 C69.6696,335.065 64.832,336.333 58.8712,336.333 L32.4481,336.333 L32.4481,302.37 L58.8712,302.37 C63.9868,302.37 68.0126,303.059 70.9485,304.438 C76.2865,307.018 78.9555,311.911 78.9555,319.118 Z M143.212,357.351 C143.078,367.938 146.459,376.323 153.354,382.506 C160.249,388.734 169.79,391.848 181.979,391.848 C192.433,391.848 201.607,389.513 209.503,384.842 C217.399,380.171 221.347,372.409 221.347,361.555 C221.347,352.836 218.233,346.186 212.005,341.604 C208.402,338.98 203.286,336.911 196.658,335.399 L182.913,332.263 C173.661,330.127 167.722,328.348 165.097,326.925 C161.094,324.7 159.092,321.186 159.092,316.382 C159.092,312.023 160.805,308.197 164.23,304.905 C167.655,301.613 173.282,299.968 181.112,299.968 C190.809,299.968 197.682,302.525 201.73,307.641 C203.909,310.443 205.333,314.469 206,319.718 L218.478,319.718 C218.478,308.82 214.885,300.891 207.701,295.931 C200.517,290.971 191.788,288.491 181.512,288.491 C170.347,288.491 161.717,291.316 155.623,296.965 C149.528,302.614 146.481,309.843 146.481,318.651 C146.481,326.791 149.595,332.908 155.823,337 C159.426,339.358 165.565,341.515 174.239,343.472 L187.517,346.475 C194.723,348.121 200.017,350.056 203.398,352.28 C206.734,354.549 208.402,358.352 208.402,363.69 C208.402,370.807 204.443,375.745 196.525,378.503 C192.433,379.926 187.895,380.638 182.913,380.638 C171.792,380.638 164.03,377.391 159.626,370.896 C157.313,367.427 156.001,362.912 155.689,357.351 L143.212,357.351 Z M238.495,388.979 L251.907,388.979 L251.907,343.139 L302.885,343.139 L302.885,388.979 L316.296,388.979 L316.296,290.96 L302.885,290.96 L302.885,331.462 L251.907,331.462 L251.907,290.96 L238.495,290.96 L238.495,388.979 Z M379.151,288.291 C362.604,288.291 350.104,294.34 341.652,306.44 C335.068,315.87 331.777,327.214 331.777,340.47 C331.777,355.149 335.624,367.293 343.32,376.902 C351.95,386.866 363.805,391.848 378.885,391.848 C395.032,391.848 407.465,386.154 416.184,374.766 C423.613,365.069 427.327,352.903 427.327,338.268 C427.327,324.745 424.08,313.646 417.585,304.972 C409.267,293.851 396.455,288.291 379.151,288.291 Z M380.486,379.971 C368.164,379.971 359.256,376.245 353.763,368.794 C348.269,361.344 345.522,352.191 345.522,341.337 C345.522,327.77 348.725,317.505 355.13,310.544 C361.536,303.582 369.81,300.101 379.952,300.101 C390.406,300.101 398.646,303.615 404.674,310.644 C410.701,317.672 413.715,326.947 413.715,338.468 C413.715,349.366 411.102,359.008 405.875,367.393 C400.648,375.778 392.185,379.971 380.486,379.971 Z M444.408,388.979 L457.687,388.979 L457.687,347.543 L488.514,347.543 C498.389,347.543 505.707,344.707 510.466,339.035 C515.226,333.363 517.606,326.702 517.606,319.051 C517.606,310.154 514.937,303.248 509.599,298.333 C504.261,293.417 497.232,290.96 488.514,290.96 L444.408,290.96 L444.408,388.979 Z M504.194,319.118 C504.194,325.523 502.337,329.994 498.623,332.529 C494.908,335.065 490.071,336.333 484.11,336.333 L457.687,336.333 L457.687,302.37 L484.11,302.37 C489.225,302.37 493.251,303.059 496.187,304.438 C501.525,307.018 504.194,311.911 504.194,319.118 Z " fill="#3e3e3e" fill-opacity="1.00" filter="url(#Wu7qXZrX)" />			<defs>				<filter id="8JwWSt69" x="-5.31%" y="-4.68%" width="133.29%" height="123.29%" filterUnits="objectBoundingBox">					<feOffset dx="17.25" dy="13.80" in="SourceAlpha" result="shadowOffsetOuter1" />					<feGaussianBlur stdDeviation="13.89" in="shadowOffsetOuter1" result="shadowBlurOuter1" />					<feFlood flood-color="#000000" flood-opacity="0.68" />					<feComposite in2="shadowBlurOuter1" operator="in" />					<feMerge>						<feMergeNode />						<feMergeNode in="SourceGraphic" />					</feMerge>				</filter>			</defs>			<path d="M173.661,246.839 L199.846,246.839 L372.31,-51.8761 L346.124,-51.8761 L173.661,246.839 Z " fill="#3e3e3e" fill-opacity="1.00" filter="url(#8JwWSt69)" />			<defs>				<filter id="QzR4dj2e" x="-0.08%" y="-2.76%" width="109.32%" height="110.25%" filterUnits="objectBoundingBox">					<feOffset dx="27.66" dy="7.38" in="SourceAlpha" result="shadowOffsetOuter1" />					<feGaussianBlur stdDeviation="14.07" in="shadowOffsetOuter1" result="shadowBlurOuter1" />					<feFlood flood-color="#000000" flood-opacity="0.50" />					<feComposite in2="shadowBlurOuter1" operator="in" />					<feMerge>						<feMergeNode />						<feMergeNode in="SourceGraphic" />					</feMerge>				</filter>			</defs>			<path d="M609.547,-3.22826e-06 L553.556,-1.13687e-13 L-5.68434e-14,-751.97 L55.9913,-751.97 L609.547,-3.22826e-06 Z " fill="#3e3e3e" fill-opacity="1.00" filter="url(#QzR4dj2e)" />			<defs>				<filter id="6Do2i4L0" x="-0.08%" y="-2.76%" width="109.32%" height="110.25%" filterUnits="objectBoundingBox">					<feOffset dx="27.66" dy="7.38" in="SourceAlpha" result="shadowOffsetOuter1" />					<feGaussianBlur stdDeviation="14.07" in="shadowOffsetOuter1" result="shadowBlurOuter1" />					<feFlood flood-color="#000000" flood-opacity="0.50" />					<feComposite in2="shadowBlurOuter1" operator="in" />					<feMerge>						<feMergeNode />						<feMergeNode in="SourceGraphic" />					</feMerge>				</filter>			</defs>			<path d="M-609.547,-1.74809e-05 L-553.556,-3.83051e-05 L-8.52651e-14,-751.97 L-55.9913,-751.97 L-609.547,-1.74809e-05 Z " fill="#3e3e3e" fill-opacity="1.00" filter="url(#6Do2i4L0)" />			<defs>				<filter id="hpJuwT1V" x="-5.31%" y="-4.68%" width="133.29%" height="123.29%" filterUnits="objectBoundingBox">					<feOffset dx="17.25" dy="13.80" in="SourceAlpha" result="shadowOffsetOuter1" />					<feGaussianBlur stdDeviation="13.89" in="shadowOffsetOuter1" result="shadowBlurOuter1" />					<feFlood flood-color="#000000" flood-opacity="0.68" />					<feComposite in2="shadowBlurOuter1" operator="in" />					<feMerge>						<feMergeNode />						<feMergeNode in="SourceGraphic" />					</feMerge>				</filter>			</defs>			<path d="M-196.87,246.839 L-223.055,246.839 L-395.519,-51.8761 L-369.333,-51.8761 L-196.87,246.839 Z " fill="#3e3e3e" fill-opacity="1.00" filter="url(#hpJuwT1V)" />			<g>				<defs>					<filter id="EIu1cjUW" x="-6.84%" y="-6.49%" width="142.87%" height="132.28%" filterUnits="objectBoundingBox">						<feOffset dx="17.25" dy="13.80" in="SourceAlpha" result="shadowOffsetOuter1" />						<feGaussianBlur stdDeviation="13.89" in="shadowOffsetOuter1" result="shadowBlurOuter1" />						<feFlood flood-color="#000000" flood-opacity="0.68" />						<feComposite in2="shadowBlurOuter1" operator="in" />						<feMerge>							<feMergeNode />							<feMergeNode in="SourceGraphic" />						</feMerge>					</filter>				</defs>				<path d="M-12.9674,664.71 L13.2184,664.71 L141.268,449.166 L115.082,449.166 L-12.9674,664.71 Z " fill="#3e3e3e" fill-opacity="1.00" filter="url(#EIu1cjUW)" />				<defs>					<filter id="aXD28ICM" x="-6.84%" y="-6.49%" width="142.87%" height="132.28%" filterUnits="objectBoundingBox">						<feOffset dx="17.25" dy="13.80" in="SourceAlpha" result="shadowOffsetOuter1" />						<feGaussianBlur stdDeviation="13.89" in="shadowOffsetOuter1" result="shadowBlurOuter1" />						<feFlood flood-color="#000000" flood-opacity="0.68" />						<feComposite in2="shadowBlurOuter1" operator="in" />						<feMerge>							<feMergeNode />							<feMergeNode in="SourceGraphic" />						</feMerge>					</filter>				</defs>				<path d="M-10.0044,664.71 L-36.1902,664.71 L-164.24,449.166 L-138.054,449.166 L-10.0044,664.71 Z " fill="#3e3e3e" fill-opacity="1.00" filter="url(#aXD28ICM)" />			</g>		</g>	</svg>